<svg id="svg" version="1.1" xmlns="http://www.w3.org/2000/svg" xmlns:xlink="http://www.w3.org/1999/xlink" width="400" height="400" viewBox="0, 0, 400,400"><g id="svgg"><path id="path0" d="M107.772 158.352 C 106.312 159.242,104.333 162.137,101.997 166.800 C 99.762 171.259,96.261 177.064,92.226 183.000 C 70.500 214.960,61.287 232.136,58.539 245.800 C 56.291 256.977,59.296 277.220,63.602 279.909 C 64.788 280.649,64.903 280.097,65.240 272.020 C 66.028 253.139,69.974 241.676,80.391 228.018 C 86.072 220.567,91.692 217.462,94.716 220.102 C 97.167 222.241,99.999 221.737,109.200 217.526 C 116.627 214.127,124.759 210.837,128.600 209.678 C 134.396 207.928,136.748 205.221,136.238 200.884 C 135.530 194.858,127.912 179.792,118.191 165.189 C 113.430 158.037,110.953 156.412,107.772 158.352 " stroke="none" fill="#2e5b3e" fill-rule="evenodd"></path><path id="path1" d="M163.578 1.035 C 161.706 2.440,161.166 2.634,153.600 4.613 C 149.970 5.563,145.380 6.960,143.400 7.718 C 141.420 8.475,137.640 9.766,135.000 10.586 C 87.545 25.323,42.100 65.567,19.696 112.692 C 13.422 125.890,7.979 140.869,3.833 156.347 C 2.823 160.117,2.046 162.175,1.200 163.326 L 0.000 164.958 0.000 196.655 C 0.000 217.102,0.140 228.439,0.395 228.597 C 1.487 229.272,2.916 232.823,4.403 238.556 C 5.309 242.051,6.868 247.165,7.867 249.920 C 8.866 252.675,10.291 256.850,11.034 259.197 C 19.170 284.890,36.629 312.584,58.593 334.638 C 86.804 362.962,126.178 383.730,161.600 388.967 C 166.632 389.711,173.227 390.922,176.800 391.758 C 188.536 394.504,203.060 394.376,217.800 391.396 C 221.540 390.640,227.994 389.476,232.143 388.808 C 246.588 386.485,263.443 381.155,277.074 374.601 C 280.048 373.170,282.547 372.000,282.627 372.000 C 282.706 372.000,285.793 370.357,289.486 368.348 C 321.931 350.702,350.670 321.974,368.354 289.507 C 370.360 285.827,372.000 282.741,372.000 282.651 C 372.000 282.561,373.238 279.903,374.751 276.744 C 380.711 264.297,386.797 245.334,388.596 233.600 C 389.285 229.103,390.189 224.081,392.193 213.613 C 393.507 206.746,393.999 198.832,393.580 191.304 C 393.196 184.398,393.267 184.907,391.179 174.200 C 390.321 169.800,389.331 164.220,388.979 161.800 C 380.569 103.998,335.237 45.119,279.200 19.214 C 265.932 13.080,250.824 7.642,236.400 3.808 C 232.392 2.742,230.619 2.066,229.523 1.186 L 228.047 0.000 196.501 0.000 L 164.955 0.000 163.578 1.035 M215.200 12.357 C 221.322 13.265,229.877 14.912,236.400 16.439 C 291.701 29.378,336.691 65.340,362.709 117.400 C 364.248 120.480,365.962 124.170,366.519 125.600 C 367.632 128.462,370.222 135.226,370.808 136.800 C 381.759 166.253,384.077 206.505,376.553 236.600 C 362.672 292.128,329.282 334.440,278.000 361.486 C 260.313 370.815,236.346 377.817,213.276 380.397 C 206.915 381.108,184.230 381.003,178.200 380.234 C 163.945 378.416,157.689 377.140,146.400 373.745 C 136.317 370.713,136.921 370.923,125.600 366.519 C 112.638 361.476,89.606 347.233,78.353 337.301 C 57.091 318.536,45.524 304.061,32.402 279.800 C 15.548 248.640,7.367 202.788,13.203 172.200 C 19.407 139.681,26.633 120.491,40.992 98.400 C 41.492 97.630,43.423 94.660,45.281 91.800 C 55.541 76.012,76.427 55.252,92.723 44.642 C 111.518 32.406,122.137 27.060,139.000 21.345 C 150.698 17.380,167.007 13.702,179.479 12.214 C 185.105 11.544,210.398 11.645,215.200 12.357 M209.400 75.056 C 202.252 76.143,198.864 80.043,201.056 84.662 C 202.656 88.034,205.051 88.879,218.000 90.641 C 239.525 93.570,256.511 98.735,268.800 106.088 C 300.265 124.913,317.688 149.234,326.193 186.200 C 328.690 197.054,330.935 200.400,335.721 200.400 C 344.677 200.400,344.728 185.130,335.854 160.742 C 320.175 117.646,280.613 84.838,235.400 77.436 C 225.792 75.863,212.247 74.623,209.400 75.056 M200.073 118.335 C 194.411 120.359,192.741 125.562,196.535 129.356 C 198.773 131.595,201.920 132.563,210.400 133.623 C 247.241 138.229,273.612 161.717,282.004 197.400 C 284.418 207.661,287.913 211.911,292.746 210.463 C 300.803 208.050,300.173 194.678,291.001 173.400 C 280.075 148.053,257.645 129.231,228.055 120.578 C 218.961 117.919,204.485 116.758,200.073 118.335 M106.600 149.829 C 103.975 151.194,101.579 154.439,98.202 161.200 C 95.341 166.930,93.676 169.704,86.684 180.400 C 66.017 212.016,66.923 210.541,61.002 222.200 C 50.064 243.737,48.528 259.781,55.402 280.672 C 59.741 293.859,66.711 301.544,72.575 299.608 C 74.454 298.988,76.041 297.306,75.772 296.218 C 75.316 294.365,75.120 291.785,74.832 283.800 C 74.593 277.162,74.378 275.023,73.808 273.600 C 70.955 266.479,74.221 248.739,79.562 242.352 C 81.701 239.793,85.140 238.842,87.154 240.253 C 88.073 240.896,88.147 240.847,91.943 237.081 C 96.948 232.117,96.437 232.570,100.872 229.158 C 108.802 223.057,115.583 219.563,126.000 216.211 C 134.831 213.369,138.714 212.005,141.373 210.812 L 144.051 209.611 143.825 207.805 C 143.701 206.812,143.498 205.145,143.373 204.100 C 142.593 197.592,137.307 184.705,131.463 175.065 C 117.191 151.523,112.499 146.761,106.600 149.829 M111.728 157.973 C 116.841 159.917,135.201 192.060,136.238 200.884 C 136.748 205.221,134.396 207.928,128.600 209.678 C 124.759 210.837,116.627 214.127,109.200 217.526 C 99.999 221.737,97.167 222.241,94.716 220.102 C 91.692 217.462,86.072 220.567,80.391 228.018 C 69.974 241.676,66.028 253.139,65.240 272.020 C 64.903 280.097,64.788 280.649,63.602 279.909 C 59.296 277.220,56.291 256.977,58.539 245.800 C 61.287 232.136,70.500 214.960,92.226 183.000 C 96.261 177.064,99.762 171.259,101.997 166.800 C 105.993 158.825,108.349 156.688,111.728 157.973 M194.400 160.782 C 190.212 162.220,187.983 166.069,189.389 169.435 C 190.716 172.610,192.642 173.706,200.447 175.725 C 220.228 180.840,231.276 190.465,236.806 207.400 C 239.855 216.737,243.321 220.249,248.080 218.823 C 260.068 215.232,250.961 187.728,233.022 173.349 C 221.892 164.428,202.324 158.060,194.400 160.782 " stroke="none" fill="#2e5b3e" fill-rule="evenodd"></path><path id="path2" d="M-0.000 82.479 L -0.000 164.958 1.200 163.326 C 2.046 162.175,2.823 160.117,3.833 156.347 C 18.628 101.118,46.695 61.069,91.101 31.824 C 104.121 23.249,121.862 14.666,135.000 10.586 C 137.640 9.766,141.420 8.475,143.400 7.718 C 145.380 6.960,149.970 5.563,153.600 4.613 C 161.166 2.634,161.706 2.440,163.578 1.035 L 164.955 0.000 82.478 0.000 L 0.000 0.000 -0.000 82.479 M228.974 0.772 C 230.082 1.996,231.848 2.667,238.552 4.413 C 242.005 5.312,247.077 6.857,249.824 7.848 C 252.572 8.838,256.765 10.264,259.142 11.017 C 284.664 19.098,312.071 36.337,334.743 58.569 C 362.287 85.578,383.864 126.647,388.979 161.800 C 389.331 164.220,390.321 169.800,391.179 174.200 C 393.267 184.907,393.196 184.398,393.580 191.304 C 393.998 198.801,393.508 206.743,392.211 213.513 C 390.228 223.866,389.284 229.115,388.596 233.600 C 386.797 245.334,380.711 264.297,374.751 276.744 C 373.238 279.903,372.000 282.561,372.000 282.651 C 372.000 282.741,370.360 285.827,368.354 289.507 C 350.670 321.974,321.931 350.702,289.486 368.348 C 285.793 370.357,282.706 372.000,282.627 372.000 C 282.547 372.000,280.048 373.170,277.074 374.601 C 263.443 381.155,246.588 386.485,232.143 388.808 C 227.994 389.476,221.540 390.640,217.800 391.396 C 203.060 394.376,188.536 394.504,176.800 391.758 C 173.227 390.922,166.632 389.711,161.600 388.967 C 122.052 383.120,76.825 357.200,48.591 324.200 C 32.063 304.883,17.543 279.751,11.034 259.197 C 10.291 256.850,8.866 252.675,7.867 249.920 C 6.868 247.165,5.309 242.051,4.403 238.556 C 2.916 232.823,1.487 229.272,0.395 228.597 C 0.135 228.436,0.000 257.750,0.000 314.176 L 0.000 400.000 200.000 400.000 L 400.000 400.000 400.000 200.000 L 400.000 0.000 314.138 0.000 C 229.352 0.000,228.285 0.010,228.974 0.772 M179.479 12.214 C 167.007 13.702,150.698 17.380,139.000 21.345 C 122.137 27.060,111.518 32.406,92.723 44.642 C 76.427 55.252,55.541 76.012,45.281 91.800 C 43.423 94.660,41.492 97.630,40.992 98.400 C 26.633 120.491,19.407 139.681,13.203 172.200 C 9.950 189.249,11.207 214.325,16.419 236.353 C 25.964 276.692,45.194 308.035,78.353 337.301 C 89.606 347.233,112.638 361.476,125.600 366.519 C 136.921 370.923,136.317 370.713,146.400 373.745 C 157.689 377.140,163.945 378.416,178.200 380.234 C 184.230 381.003,206.915 381.108,213.276 380.397 C 277.771 373.185,330.498 336.756,361.486 278.000 C 367.892 265.855,375.248 244.543,377.779 230.800 C 383.700 198.652,381.181 164.698,370.808 136.800 C 370.222 135.226,367.632 128.462,366.519 125.600 C 363.848 118.735,357.828 107.720,350.451 96.200 C 326.834 59.317,286.033 29.355,244.565 18.441 C 235.456 16.044,223.867 13.643,215.200 12.357 C 210.398 11.645,185.105 11.544,179.479 12.214 M223.400 75.837 C 279.823 81.635,323.545 117.292,338.800 169.953 C 344.687 190.273,343.663 200.400,335.721 200.400 C 330.935 200.400,328.690 197.054,326.193 186.200 C 317.688 149.234,300.265 124.913,268.800 106.088 C 256.511 98.735,239.525 93.570,218.000 90.641 C 212.390 89.878,207.002 88.968,206.027 88.619 C 198.506 85.927,198.568 77.953,206.127 75.823 C 210.111 74.700,212.346 74.701,223.400 75.837 M220.055 118.757 C 251.455 124.444,279.065 145.709,291.001 173.400 C 300.173 194.678,300.803 208.050,292.746 210.463 C 287.913 211.911,284.418 207.661,282.004 197.400 C 273.612 161.717,247.241 138.229,210.400 133.623 C 199.634 132.277,195.335 130.260,194.573 126.197 C 193.164 118.685,203.307 115.724,220.055 118.757 M112.213 149.780 C 116.298 151.486,120.572 157.100,131.463 175.065 C 137.307 184.705,142.593 197.592,143.373 204.100 C 144.056 209.807,143.994 209.608,145.328 210.421 C 148.827 212.555,165.392 209.516,180.800 203.915 C 189.804 200.641,192.473 200.661,194.208 204.015 C 196.282 208.027,194.305 223.187,189.176 242.600 C 187.839 247.660,185.759 255.670,184.553 260.400 C 178.280 285.003,164.915 304.352,147.967 313.368 C 132.220 321.745,114.404 323.622,100.723 318.346 C 93.375 315.512,91.295 309.914,93.380 298.580 C 96.542 281.401,103.734 269.229,119.840 253.802 C 129.303 244.737,129.909 243.569,124.825 244.205 C 114.112 245.543,103.939 252.119,95.748 263.000 C 89.659 271.088,81.444 284.858,79.999 289.400 C 73.576 309.579,58.664 299.110,52.528 270.112 C 48.155 249.447,54.141 230.219,74.792 198.600 C 77.809 193.980,83.161 185.790,86.684 180.400 C 93.676 169.704,95.341 166.930,98.202 161.200 C 103.486 150.620,107.125 147.654,112.213 149.780 M204.456 160.634 C 214.448 162.528,225.859 167.607,233.022 173.349 C 250.961 187.728,260.068 215.232,248.080 218.823 C 243.321 220.249,239.855 216.737,236.806 207.400 C 231.276 190.465,220.228 180.840,200.447 175.725 C 191.181 173.328,188.236 170.919,189.006 166.364 C 189.860 161.312,196.006 159.032,204.456 160.634 M82.200 240.208 C 75.999 243.322,70.902 261.682,73.350 272.085 C 74.982 279.018,76.800 277.249,80.378 265.246 C 81.519 261.421,83.626 255.322,85.060 251.693 C 88.117 243.959,88.611 241.273,87.161 240.258 C 85.990 239.438,83.777 239.415,82.200 240.208 " stroke="none" fill="none" fill-rule="evenodd"></path><path id="path3" d="M188.023 201.481 C 187.486 201.588,184.156 202.719,180.623 203.995 C 165.254 209.544,148.800 212.538,145.323 210.418 L 144.046 209.640 140.523 211.162 C 138.585 211.999,134.570 213.449,131.600 214.386 C 111.817 220.624,102.993 225.728,91.256 237.723 C 88.405 240.637,88.181 240.992,87.915 243.020 C 87.758 244.215,86.465 248.140,85.041 251.742 C 83.617 255.344,81.519 261.421,80.378 265.246 C 77.807 273.870,76.604 276.310,75.059 276.034 C 74.441 275.923,75.119 294.488,75.800 296.325 C 76.227 297.480,78.753 293.314,79.999 289.400 C 81.444 284.858,89.659 271.088,95.748 263.000 C 103.939 252.119,114.112 245.543,124.825 244.205 C 129.909 243.569,129.303 244.737,119.840 253.802 C 103.734 269.229,96.542 281.401,93.380 298.580 C 91.295 309.914,93.375 315.512,100.723 318.346 C 114.404 323.622,132.220 321.745,147.967 313.368 C 164.915 304.352,178.280 285.003,184.553 260.400 C 185.759 255.670,187.839 247.660,189.176 242.600 C 197.247 212.053,196.901 199.706,188.023 201.481 " stroke="none" fill="#abde33" fill-rule="evenodd"></path></g></svg>