<svg xmlns="http://www.w3.org/2000/svg" version="1.1" xmlns:xlink="http://www.w3.org/1999/xlink" xmlns:svgjs="http://svgjs.com/svgjs" width="100%" height="100%" preserveAspectRatio="none" viewBox="0 0 1440 560">
    <g mask="url(&quot;#SvgjsMask2700&quot;)" fill="none">
        <rect width="1440" height="560" x="0" y="0" fill="url(#SvgjsLinearGradient2701)"></rect>
        <path d="M-97.08 359.32L-97.08 359.32" stroke="rgba(0, 192, 135, 1)" stroke-width="1.5"></path>
        <path d="M-97.08 359.32L53.7 388.28" stroke="rgba(0, 192, 135, 1)" stroke-width="1.5"></path>
        <path d="M-97.08 359.32L-91.12 541.13" stroke="rgba(0, 192, 135, 1)" stroke-width="1.5"></path>
        <path d="M-97.08 359.32L37.88 493.63" stroke="rgba(0, 192, 135, 1)" stroke-width="1.5"></path>
        <path d="M-97.08 359.32L189.34 338.7" stroke="rgba(0, 192, 135, 1)" stroke-width="1.5"></path>
        <path d="M-91.12 541.13L-91.12 541.13" stroke="rgba(0, 192, 135, 1)" stroke-width="1.5"></path>
        <path d="M-91.12 541.13L-58.06 646.06" stroke="rgba(0, 192, 135, 1)" stroke-width="1.5"></path>
        <path d="M-91.12 541.13L37.88 493.63" stroke="rgba(0, 192, 135, 1)" stroke-width="1.5"></path>
        <path d="M-91.12 541.13L38.64 700.53" stroke="rgba(0, 192, 135, 1)" stroke-width="1.5"></path>
        <path d="M-91.12 541.13L53.7 388.28" stroke="rgba(0, 192, 135, 1)" stroke-width="1.5"></path>
        <path d="M-91.12 541.13L235.69 508.22" stroke="rgba(0, 192, 135, 1)" stroke-width="1.5"></path>
        <path d="M-58.06 646.06L-58.06 646.06" stroke="rgba(0, 192, 135, 1)" stroke-width="1.5"></path>
        <path d="M-58.06 646.06L38.64 700.53" stroke="rgba(0, 192, 135, 1)" stroke-width="1.5"></path>
        <path d="M53.7 388.28L53.7 388.28" stroke="rgba(0, 192, 135, 1)" stroke-width="1.5"></path>
        <path d="M53.7 388.28L37.88 493.63" stroke="rgba(0, 192, 135, 1)" stroke-width="1.5"></path>
        <path d="M53.7 388.28L189.34 338.7" stroke="rgba(0, 192, 135, 1)" stroke-width="1.5"></path>
        <path d="M37.88 493.63L37.88 493.63" stroke="rgba(0, 192, 135, 1)" stroke-width="1.5"></path>
        <path d="M37.88 493.63L-58.06 646.06" stroke="rgba(0, 192, 135, 1)" stroke-width="1.5"></path>
        <path d="M38.64 700.53L38.64 700.53" stroke="rgba(0, 192, 135, 1)" stroke-width="1.5"></path>
        <path d="M38.64 700.53L220.68 708.24" stroke="rgba(0, 192, 135, 1)" stroke-width="1.5"></path>
        <path d="M38.64 700.53L37.88 493.63" stroke="rgba(0, 192, 135, 1)" stroke-width="1.5"></path>
        <path d="M38.64 700.53L235.69 508.22" stroke="rgba(0, 192, 135, 1)" stroke-width="1.5"></path>
        <path d="M189.34 338.7L189.34 338.7" stroke="rgba(0, 192, 135, 1)" stroke-width="1.5"></path>
        <path d="M189.34 338.7L235.69 508.22" stroke="rgba(0, 192, 135, 1)" stroke-width="1.5"></path>
        <path d="M189.34 338.7L371.31 366.36" stroke="rgba(0, 192, 135, 1)" stroke-width="1.5"></path>
        <path d="M189.34 338.7L37.88 493.63" stroke="rgba(0, 192, 135, 1)" stroke-width="1.5"></path>
        <path d="M235.69 508.22L235.69 508.22" stroke="rgba(0, 192, 135, 1)" stroke-width="1.5"></path>
        <path d="M235.69 508.22L377.75 545.7" stroke="rgba(0, 192, 135, 1)" stroke-width="1.5"></path>
        <path d="M235.69 508.22L341.99 653.82" stroke="rgba(0, 192, 135, 1)" stroke-width="1.5"></path>
        <path d="M235.69 508.22L371.31 366.36" stroke="rgba(0, 192, 135, 1)" stroke-width="1.5"></path>
        <path d="M235.69 508.22L37.88 493.63" stroke="rgba(0, 192, 135, 1)" stroke-width="1.5"></path>
        <path d="M235.69 508.22L220.68 708.24" stroke="rgba(0, 192, 135, 1)" stroke-width="1.5"></path>
        <path d="M220.68 708.24L220.68 708.24" stroke="rgba(0, 192, 135, 1)" stroke-width="1.5"></path>
        <path d="M220.68 708.24L341.99 653.82" stroke="rgba(0, 192, 135, 1)" stroke-width="1.5"></path>
        <path d="M220.68 708.24L377.75 545.7" stroke="rgba(0, 192, 135, 1)" stroke-width="1.5"></path>
        <path d="M371.31 366.36L371.31 366.36" stroke="rgba(0, 192, 135, 1)" stroke-width="1.5"></path>
        <path d="M371.31 366.36L377.75 545.7" stroke="rgba(0, 192, 135, 1)" stroke-width="1.5"></path>
        <path d="M377.75 545.7L377.75 545.7" stroke="rgba(0, 192, 135, 1)" stroke-width="1.5"></path>
        <path d="M377.75 545.7L341.99 653.82" stroke="rgba(0, 192, 135, 1)" stroke-width="1.5"></path>
        <path d="M377.75 545.7L496.34 526.48" stroke="rgba(0, 192, 135, 1)" stroke-width="1.5"></path>
        <path d="M377.75 545.7L488.92 700.27" stroke="rgba(0, 192, 135, 1)" stroke-width="1.5"></path>
        <path d="M341.99 653.82L341.99 653.82" stroke="rgba(0, 192, 135, 1)" stroke-width="1.5"></path>
        <path d="M496.34 526.48L496.34 526.48" stroke="rgba(0, 192, 135, 1)" stroke-width="1.5"></path>
        <path d="M496.34 526.48L655.35 561.71" stroke="rgba(0, 192, 135, 1)" stroke-width="1.5"></path>
        <path d="M496.34 526.48L488.92 700.27" stroke="rgba(0, 192, 135, 1)" stroke-width="1.5"></path>
        <path d="M496.34 526.48L341.99 653.82" stroke="rgba(0, 192, 135, 1)" stroke-width="1.5"></path>
        <path d="M496.34 526.48L371.31 366.36" stroke="rgba(0, 192, 135, 1)" stroke-width="1.5"></path>
        <path d="M488.92 700.27L488.92 700.27" stroke="rgba(0, 192, 135, 1)" stroke-width="1.5"></path>
        <path d="M488.92 700.27L341.99 653.82" stroke="rgba(0, 192, 135, 1)" stroke-width="1.5"></path>
        <path d="M659.42 236.1L659.42 236.1" stroke="rgba(0, 192, 135, 1)" stroke-width="1.5"></path>
        <path d="M659.42 236.1L655.23 361.71" stroke="rgba(0, 192, 135, 1)" stroke-width="1.5"></path>
        <path d="M659.42 236.1L804.88 257.05" stroke="rgba(0, 192, 135, 1)" stroke-width="1.5"></path>
        <path d="M659.42 236.1L822.39 103.84" stroke="rgba(0, 192, 135, 1)" stroke-width="1.5"></path>
        <path d="M659.42 236.1L858.91 381.81" stroke="rgba(0, 192, 135, 1)" stroke-width="1.5"></path>
        <path d="M659.42 236.1L941.23 225.42" stroke="rgba(0, 192, 135, 1)" stroke-width="1.5"></path>
        <path d="M655.23 361.71L655.23 361.71" stroke="rgba(0, 192, 135, 1)" stroke-width="1.5"></path>
        <path d="M655.23 361.71L804.88 257.05" stroke="rgba(0, 192, 135, 1)" stroke-width="1.5"></path>
        <path d="M655.23 361.71L655.35 561.71" stroke="rgba(0, 192, 135, 1)" stroke-width="1.5"></path>
        <path d="M655.23 361.71L858.91 381.81" stroke="rgba(0, 192, 135, 1)" stroke-width="1.5"></path>
        <path d="M655.23 361.71L496.34 526.48" stroke="rgba(0, 192, 135, 1)" stroke-width="1.5"></path>
        <path d="M655.35 561.71L655.35 561.71" stroke="rgba(0, 192, 135, 1)" stroke-width="1.5"></path>
        <path d="M655.35 561.71L673.17 709.99" stroke="rgba(0, 192, 135, 1)" stroke-width="1.5"></path>
        <path d="M655.35 561.71L837.07 502.55" stroke="rgba(0, 192, 135, 1)" stroke-width="1.5"></path>
        <path d="M655.35 561.71L488.92 700.27" stroke="rgba(0, 192, 135, 1)" stroke-width="1.5"></path>
        <path d="M673.17 709.99L673.17 709.99" stroke="rgba(0, 192, 135, 1)" stroke-width="1.5"></path>
        <path d="M673.17 709.99L829.28 711.06" stroke="rgba(0, 192, 135, 1)" stroke-width="1.5"></path>
        <path d="M673.17 709.99L488.92 700.27" stroke="rgba(0, 192, 135, 1)" stroke-width="1.5"></path>
        <path d="M822.39 103.84L822.39 103.84" stroke="rgba(0, 192, 135, 1)" stroke-width="1.5"></path>
        <path d="M822.39 103.84L967.71 89.59" stroke="rgba(0, 192, 135, 1)" stroke-width="1.5"></path>
        <path d="M822.39 103.84L804.88 257.05" stroke="rgba(0, 192, 135, 1)" stroke-width="1.5"></path>
        <path d="M804.88 257.05L804.88 257.05" stroke="rgba(0, 192, 135, 1)" stroke-width="1.5"></path>
        <path d="M804.88 257.05L858.91 381.81" stroke="rgba(0, 192, 135, 1)" stroke-width="1.5"></path>
        <path d="M804.88 257.05L941.23 225.42" stroke="rgba(0, 192, 135, 1)" stroke-width="1.5"></path>
        <path d="M804.88 257.05L950.58 403.42" stroke="rgba(0, 192, 135, 1)" stroke-width="1.5"></path>
        <path d="M858.91 381.81L858.91 381.81" stroke="rgba(0, 192, 135, 1)" stroke-width="1.5"></path>
        <path d="M858.91 381.81L950.58 403.42" stroke="rgba(0, 192, 135, 1)" stroke-width="1.5"></path>
        <path d="M858.91 381.81L837.07 502.55" stroke="rgba(0, 192, 135, 1)" stroke-width="1.5"></path>
        <path d="M858.91 381.81L950.47 528.86" stroke="rgba(0, 192, 135, 1)" stroke-width="1.5"></path>
        <path d="M837.07 502.55L837.07 502.55" stroke="rgba(0, 192, 135, 1)" stroke-width="1.5"></path>
        <path d="M837.07 502.55L950.47 528.86" stroke="rgba(0, 192, 135, 1)" stroke-width="1.5"></path>
        <path d="M837.07 502.55L950.58 403.42" stroke="rgba(0, 192, 135, 1)" stroke-width="1.5"></path>
        <path d="M829.28 711.06L829.28 711.06" stroke="rgba(0, 192, 135, 1)" stroke-width="1.5"></path>
        <path d="M829.28 711.06L990.26 684.39" stroke="rgba(0, 192, 135, 1)" stroke-width="1.5"></path>
        <path d="M829.28 711.06L837.07 502.55" stroke="rgba(0, 192, 135, 1)" stroke-width="1.5"></path>
        <path d="M829.28 711.06L950.47 528.86" stroke="rgba(0, 192, 135, 1)" stroke-width="1.5"></path>
        <path d="M955.84 -103.1L955.84 -103.1" stroke="rgba(0, 192, 135, 1)" stroke-width="1.5"></path>
        <path d="M955.84 -103.1L1129.12 -67.11" stroke="rgba(0, 192, 135, 1)" stroke-width="1.5"></path>
        <path d="M955.84 -103.1L967.71 89.59" stroke="rgba(0, 192, 135, 1)" stroke-width="1.5"></path>
        <path d="M967.71 89.59L967.71 89.59" stroke="rgba(0, 192, 135, 1)" stroke-width="1.5"></path>
        <path d="M967.71 89.59L941.23 225.42" stroke="rgba(0, 192, 135, 1)" stroke-width="1.5"></path>
        <path d="M941.23 225.42L941.23 225.42" stroke="rgba(0, 192, 135, 1)" stroke-width="1.5"></path>
        <path d="M941.23 225.42L822.39 103.84" stroke="rgba(0, 192, 135, 1)" stroke-width="1.5"></path>
        <path d="M941.23 225.42L858.91 381.81" stroke="rgba(0, 192, 135, 1)" stroke-width="1.5"></path>
        <path d="M941.23 225.42L950.58 403.42" stroke="rgba(0, 192, 135, 1)" stroke-width="1.5"></path>
        <path d="M941.23 225.42L1121.28 224.2" stroke="rgba(0, 192, 135, 1)" stroke-width="1.5"></path>
        <path d="M950.58 403.42L950.58 403.42" stroke="rgba(0, 192, 135, 1)" stroke-width="1.5"></path>
        <path d="M950.58 403.42L950.47 528.86" stroke="rgba(0, 192, 135, 1)" stroke-width="1.5"></path>
        <path d="M950.47 528.86L950.47 528.86" stroke="rgba(0, 192, 135, 1)" stroke-width="1.5"></path>
        <path d="M950.47 528.86L990.26 684.39" stroke="rgba(0, 192, 135, 1)" stroke-width="1.5"></path>
        <path d="M950.47 528.86L1156.8 526.43" stroke="rgba(0, 192, 135, 1)" stroke-width="1.5"></path>
        <path d="M990.26 684.39L990.26 684.39" stroke="rgba(0, 192, 135, 1)" stroke-width="1.5"></path>
        <path d="M990.26 684.39L1146.35 654.89" stroke="rgba(0, 192, 135, 1)" stroke-width="1.5"></path>
        <path d="M1129.12 -67.11L1129.12 -67.11" stroke="rgba(0, 192, 135, 1)" stroke-width="1.5"></path>
        <path d="M1129.12 -67.11L1254.32 -53.28" stroke="rgba(0, 192, 135, 1)" stroke-width="1.5"></path>
        <path d="M1129.12 -67.11L1154.45 87.56" stroke="rgba(0, 192, 135, 1)" stroke-width="1.5"></path>
        <path d="M1129.12 -67.11L1240.19 78.35" stroke="rgba(0, 192, 135, 1)" stroke-width="1.5"></path>
        <path d="M1129.12 -67.11L967.71 89.59" stroke="rgba(0, 192, 135, 1)" stroke-width="1.5"></path>
        <path d="M1154.45 87.56L1154.45 87.56" stroke="rgba(0, 192, 135, 1)" stroke-width="1.5"></path>
        <path d="M1154.45 87.56L1240.19 78.35" stroke="rgba(0, 192, 135, 1)" stroke-width="1.5"></path>
        <path d="M1154.45 87.56L1121.28 224.2" stroke="rgba(0, 192, 135, 1)" stroke-width="1.5"></path>
        <path d="M1154.45 87.56L1254.32 -53.28" stroke="rgba(0, 192, 135, 1)" stroke-width="1.5"></path>
        <path d="M1154.45 87.56L967.71 89.59" stroke="rgba(0, 192, 135, 1)" stroke-width="1.5"></path>
        <path d="M1121.28 224.2L1121.28 224.2" stroke="rgba(0, 192, 135, 1)" stroke-width="1.5"></path>
        <path d="M1121.28 224.2L1155.21 409.13" stroke="rgba(0, 192, 135, 1)" stroke-width="1.5"></path>
        <path d="M1121.28 224.2L1240.19 78.35" stroke="rgba(0, 192, 135, 1)" stroke-width="1.5"></path>
        <path d="M1121.28 224.2L1310.97 217.61" stroke="rgba(0, 192, 135, 1)" stroke-width="1.5"></path>
        <path d="M1121.28 224.2L1272.71 355.43" stroke="rgba(0, 192, 135, 1)" stroke-width="1.5"></path>
        <path d="M1155.21 409.13L1155.21 409.13" stroke="rgba(0, 192, 135, 1)" stroke-width="1.5"></path>
        <path d="M1155.21 409.13L1156.8 526.43" stroke="rgba(0, 192, 135, 1)" stroke-width="1.5"></path>
        <path d="M1155.21 409.13L1272.71 355.43" stroke="rgba(0, 192, 135, 1)" stroke-width="1.5"></path>
        <path d="M1155.21 409.13L1265.72 533.67" stroke="rgba(0, 192, 135, 1)" stroke-width="1.5"></path>
        <path d="M1156.8 526.43L1156.8 526.43" stroke="rgba(0, 192, 135, 1)" stroke-width="1.5"></path>
        <path d="M1156.8 526.43L1265.72 533.67" stroke="rgba(0, 192, 135, 1)" stroke-width="1.5"></path>
        <path d="M1156.8 526.43L1146.35 654.89" stroke="rgba(0, 192, 135, 1)" stroke-width="1.5"></path>
        <path d="M1156.8 526.43L1257.21 702.5" stroke="rgba(0, 192, 135, 1)" stroke-width="1.5"></path>
        <path d="M1146.35 654.89L1146.35 654.89" stroke="rgba(0, 192, 135, 1)" stroke-width="1.5"></path>
        <path d="M1146.35 654.89L1257.21 702.5" stroke="rgba(0, 192, 135, 1)" stroke-width="1.5"></path>
        <path d="M1254.32 -53.28L1254.32 -53.28" stroke="rgba(0, 192, 135, 1)" stroke-width="1.5"></path>
        <path d="M1254.32 -53.28L1240.19 78.35" stroke="rgba(0, 192, 135, 1)" stroke-width="1.5"></path>
        <path d="M1240.19 78.35L1240.19 78.35" stroke="rgba(0, 192, 135, 1)" stroke-width="1.5"></path>
        <path d="M1240.19 78.35L1310.97 217.61" stroke="rgba(0, 192, 135, 1)" stroke-width="1.5"></path>
        <path d="M1240.19 78.35L1435.73 69.79" stroke="rgba(0, 192, 135, 1)" stroke-width="1.5"></path>
        <path d="M1310.97 217.61L1310.97 217.61" stroke="rgba(0, 192, 135, 1)" stroke-width="1.5"></path>
        <path d="M1310.97 217.61L1418.44 218.1" stroke="rgba(0, 192, 135, 1)" stroke-width="1.5"></path>
        <path d="M1310.97 217.61L1272.71 355.43" stroke="rgba(0, 192, 135, 1)" stroke-width="1.5"></path>
        <path d="M1272.71 355.43L1272.71 355.43" stroke="rgba(0, 192, 135, 1)" stroke-width="1.5"></path>
        <path d="M1272.71 355.43L1265.72 533.67" stroke="rgba(0, 192, 135, 1)" stroke-width="1.5"></path>
        <path d="M1272.71 355.43L1418.44 218.1" stroke="rgba(0, 192, 135, 1)" stroke-width="1.5"></path>
        <path d="M1265.72 533.67L1265.72 533.67" stroke="rgba(0, 192, 135, 1)" stroke-width="1.5"></path>
        <path d="M1265.72 533.67L1409.96 539.9" stroke="rgba(0, 192, 135, 1)" stroke-width="1.5"></path>
        <path d="M1257.21 702.5L1257.21 702.5" stroke="rgba(0, 192, 135, 1)" stroke-width="1.5"></path>
        <path d="M1257.21 702.5L1265.72 533.67" stroke="rgba(0, 192, 135, 1)" stroke-width="1.5"></path>
        <path d="M1257.21 702.5L1451.79 706.15" stroke="rgba(0, 192, 135, 1)" stroke-width="1.5"></path>
        <path d="M1435.73 69.79L1435.73 69.79" stroke="rgba(0, 192, 135, 1)" stroke-width="1.5"></path>
        <path d="M1435.73 69.79L1546.85 42.3" stroke="rgba(0, 192, 135, 1)" stroke-width="1.5"></path>
        <path d="M1435.73 69.79L1418.44 218.1" stroke="rgba(0, 192, 135, 1)" stroke-width="1.5"></path>
        <path d="M1435.73 69.79L1542.32 -40.36" stroke="rgba(0, 192, 135, 1)" stroke-width="1.5"></path>
        <path d="M1435.73 69.79L1576.5 193.6" stroke="rgba(0, 192, 135, 1)" stroke-width="1.5"></path>
        <path d="M1418.44 218.1L1418.44 218.1" stroke="rgba(0, 192, 135, 1)" stroke-width="1.5"></path>
        <path d="M1409.96 539.9L1409.96 539.9" stroke="rgba(0, 192, 135, 1)" stroke-width="1.5"></path>
        <path d="M1409.96 539.9L1544.06 549.17" stroke="rgba(0, 192, 135, 1)" stroke-width="1.5"></path>
        <path d="M1409.96 539.9L1451.79 706.15" stroke="rgba(0, 192, 135, 1)" stroke-width="1.5"></path>
        <path d="M1409.96 539.9L1565.27 641.52" stroke="rgba(0, 192, 135, 1)" stroke-width="1.5"></path>
        <path d="M1451.79 706.15L1451.79 706.15" stroke="rgba(0, 192, 135, 1)" stroke-width="1.5"></path>
        <path d="M1451.79 706.15L1565.27 641.52" stroke="rgba(0, 192, 135, 1)" stroke-width="1.5"></path>
        <path d="M1451.79 706.15L1544.06 549.17" stroke="rgba(0, 192, 135, 1)" stroke-width="1.5"></path>
        <path d="M1451.79 706.15L1265.72 533.67" stroke="rgba(0, 192, 135, 1)" stroke-width="1.5"></path>
        <path d="M1542.32 -40.36L1542.32 -40.36" stroke="rgba(0, 192, 135, 1)" stroke-width="1.5"></path>
        <path d="M1542.32 -40.36L1546.85 42.3" stroke="rgba(0, 192, 135, 1)" stroke-width="1.5"></path>
        <path d="M1546.85 42.3L1546.85 42.3" stroke="rgba(0, 192, 135, 1)" stroke-width="1.5"></path>
        <path d="M1546.85 42.3L1576.5 193.6" stroke="rgba(0, 192, 135, 1)" stroke-width="1.5"></path>
        <path d="M1546.85 42.3L1418.44 218.1" stroke="rgba(0, 192, 135, 1)" stroke-width="1.5"></path>
        <path d="M1546.85 42.3L1310.97 217.61" stroke="rgba(0, 192, 135, 1)" stroke-width="1.5"></path>
        <path d="M1546.85 42.3L1254.32 -53.28" stroke="rgba(0, 192, 135, 1)" stroke-width="1.5"></path>
        <path d="M1576.5 193.6L1576.5 193.6" stroke="rgba(0, 192, 135, 1)" stroke-width="1.5"></path>
        <path d="M1576.5 193.6L1418.44 218.1" stroke="rgba(0, 192, 135, 1)" stroke-width="1.5"></path>
        <path d="M1583.51 389.8L1583.51 389.8" stroke="rgba(0, 192, 135, 1)" stroke-width="1.5"></path>
        <path d="M1583.51 389.8L1544.06 549.17" stroke="rgba(0, 192, 135, 1)" stroke-width="1.5"></path>
        <path d="M1583.51 389.8L1576.5 193.6" stroke="rgba(0, 192, 135, 1)" stroke-width="1.5"></path>
        <path d="M1583.51 389.8L1409.96 539.9" stroke="rgba(0, 192, 135, 1)" stroke-width="1.5"></path>
        <path d="M1583.51 389.8L1418.44 218.1" stroke="rgba(0, 192, 135, 1)" stroke-width="1.5"></path>
        <path d="M1583.51 389.8L1565.27 641.52" stroke="rgba(0, 192, 135, 1)" stroke-width="1.5"></path>
        <path d="M1544.06 549.17L1544.06 549.17" stroke="rgba(0, 192, 135, 1)" stroke-width="1.5"></path>
        <path d="M1544.06 549.17L1565.27 641.52" stroke="rgba(0, 192, 135, 1)" stroke-width="1.5"></path>
        <path d="M1565.27 641.52L1565.27 641.52" stroke="rgba(0, 192, 135, 1)" stroke-width="1.5"></path>
        <path d="M1565.27 641.52L1257.21 702.5" stroke="rgba(0, 192, 135, 1)" stroke-width="1.5"></path>
        <circle r="5" cx="-97.08" cy="359.32" fill="rgba(0, 192, 135, 1)"></circle>
        <circle r="5" cx="-91.12" cy="541.13" fill="rgba(0, 192, 135, 1)"></circle>
        <circle r="5" cx="-58.06" cy="646.06" fill="rgba(0, 192, 135, 1)"></circle>
        <circle r="5" cx="53.7" cy="388.28" fill="rgba(0, 192, 135, 1)"></circle>
        <circle r="5" cx="37.88" cy="493.63" fill="rgba(0, 192, 135, 1)"></circle>
        <circle r="5" cx="38.64" cy="700.53" fill="rgba(0, 192, 135, 1)"></circle>
        <circle r="5" cx="189.34" cy="338.7" fill="rgba(0, 192, 135, 1)"></circle>
        <circle r="5" cx="235.69" cy="508.22" fill="rgba(0, 192, 135, 1)"></circle>
        <circle r="5" cx="220.68" cy="708.24" fill="rgba(0, 192, 135, 1)"></circle>
        <circle r="5" cx="371.31" cy="366.36" fill="rgba(0, 192, 135, 1)"></circle>
        <circle r="5" cx="377.75" cy="545.7" fill="rgba(0, 192, 135, 1)"></circle>
        <circle r="5" cx="341.99" cy="653.82" fill="rgba(0, 192, 135, 1)"></circle>
        <circle r="5" cx="496.34" cy="526.48" fill="rgba(0, 192, 135, 1)"></circle>
        <circle r="5" cx="488.92" cy="700.27" fill="rgba(0, 192, 135, 1)"></circle>
        <circle r="5" cx="659.42" cy="236.1" fill="rgba(0, 192, 135, 1)"></circle>
        <circle r="5" cx="655.23" cy="361.71" fill="rgba(0, 192, 135, 1)"></circle>
        <circle r="5" cx="655.35" cy="561.71" fill="rgba(0, 192, 135, 1)"></circle>
        <circle r="5" cx="673.17" cy="709.99" fill="rgba(0, 192, 135, 1)"></circle>
        <circle r="5" cx="822.39" cy="103.84" fill="rgba(0, 192, 135, 1)"></circle>
        <circle r="5" cx="804.88" cy="257.05" fill="rgba(0, 192, 135, 1)"></circle>
        <circle r="5" cx="858.91" cy="381.81" fill="rgba(0, 192, 135, 1)"></circle>
        <circle r="5" cx="837.07" cy="502.55" fill="rgba(0, 192, 135, 1)"></circle>
        <circle r="5" cx="829.28" cy="711.06" fill="rgba(0, 192, 135, 1)"></circle>
        <circle r="5" cx="955.84" cy="-103.1" fill="rgba(0, 192, 135, 1)"></circle>
        <circle r="5" cx="967.71" cy="89.59" fill="rgba(0, 192, 135, 1)"></circle>
        <circle r="5" cx="941.23" cy="225.42" fill="rgba(0, 192, 135, 1)"></circle>
        <circle r="5" cx="950.58" cy="403.42" fill="rgba(0, 192, 135, 1)"></circle>
        <circle r="5" cx="950.47" cy="528.86" fill="rgba(0, 192, 135, 1)"></circle>
        <circle r="5" cx="990.26" cy="684.39" fill="rgba(0, 192, 135, 1)"></circle>
        <circle r="5" cx="1129.12" cy="-67.11" fill="rgba(0, 192, 135, 1)"></circle>
        <circle r="5" cx="1154.45" cy="87.56" fill="rgba(0, 192, 135, 1)"></circle>
        <circle r="5" cx="1121.28" cy="224.2" fill="rgba(0, 192, 135, 1)"></circle>
        <circle r="5" cx="1155.21" cy="409.13" fill="rgba(0, 192, 135, 1)"></circle>
        <circle r="5" cx="1156.8" cy="526.43" fill="rgba(0, 192, 135, 1)"></circle>
        <circle r="5" cx="1146.35" cy="654.89" fill="rgba(0, 192, 135, 1)"></circle>
        <circle r="5" cx="1254.32" cy="-53.28" fill="rgba(0, 192, 135, 1)"></circle>
        <circle r="5" cx="1240.19" cy="78.35" fill="rgba(0, 192, 135, 1)"></circle>
        <circle r="5" cx="1310.97" cy="217.61" fill="rgba(0, 192, 135, 1)"></circle>
        <circle r="5" cx="1272.71" cy="355.43" fill="rgba(0, 192, 135, 1)"></circle>
        <circle r="5" cx="1265.72" cy="533.67" fill="rgba(0, 192, 135, 1)"></circle>
        <circle r="5" cx="1257.21" cy="702.5" fill="rgba(0, 192, 135, 1)"></circle>
        <circle r="5" cx="1435.73" cy="69.79" fill="rgba(0, 192, 135, 1)"></circle>
        <circle r="5" cx="1418.44" cy="218.1" fill="rgba(0, 192, 135, 1)"></circle>
        <circle r="5" cx="1409.96" cy="539.9" fill="rgba(0, 192, 135, 1)"></circle>
        <circle r="5" cx="1451.79" cy="706.15" fill="rgba(0, 192, 135, 1)"></circle>
        <circle r="5" cx="1542.32" cy="-40.36" fill="rgba(0, 192, 135, 1)"></circle>
        <circle r="5" cx="1546.85" cy="42.3" fill="rgba(0, 192, 135, 1)"></circle>
        <circle r="5" cx="1576.5" cy="193.6" fill="rgba(0, 192, 135, 1)"></circle>
        <circle r="5" cx="1583.51" cy="389.8" fill="rgba(0, 192, 135, 1)"></circle>
        <circle r="5" cx="1544.06" cy="549.17" fill="rgba(0, 192, 135, 1)"></circle>
        <circle r="5" cx="1565.27" cy="641.52" fill="rgba(0, 192, 135, 1)"></circle>
        <path d="M96.41 697.12L96.41 697.12" stroke="hsl(152.5, 96.3%, 54.8%)" stroke-width="1.5"></path>
        <path d="M96.41 697.12L197.26 705.92" stroke="hsl(152.5, 96.3%, 54.8%)" stroke-width="1.5"></path>
        <path d="M96.41 697.12L74.97 527.54" stroke="hsl(152.5, 96.3%, 54.8%)" stroke-width="1.5"></path>
        <path d="M956.99 668.67L956.99 668.67" stroke="hsl(152.5, 96.3%, 54.8%)" stroke-width="1.5"></path>
        <path d="M956.99 668.67L859.6 658.92" stroke="hsl(152.5, 96.3%, 54.8%)" stroke-width="1.5"></path>
        <path d="M956.99 668.67L969.22 527.01" stroke="hsl(152.5, 96.3%, 54.8%)" stroke-width="1.5"></path>
        <path d="M956.99 668.67L832.01 546.05" stroke="hsl(152.5, 96.3%, 54.8%)" stroke-width="1.5"></path>
        <path d="M956.99 668.67L1132.87 651.57" stroke="hsl(152.5, 96.3%, 54.8%)" stroke-width="1.5"></path>
        <path d="M956.99 668.67L1104.34 491.83" stroke="hsl(152.5, 96.3%, 54.8%)" stroke-width="1.5"></path>
        <path d="M956.99 668.67L702.85 663.11" stroke="hsl(152.5, 96.3%, 54.8%)" stroke-width="1.5"></path>
        <path d="M1136.37 399.38L1136.37 399.38" stroke="hsl(152.5, 96.3%, 54.8%)" stroke-width="1.5"></path>
        <path d="M1136.37 399.38L1104.34 491.83" stroke="hsl(152.5, 96.3%, 54.8%)" stroke-width="1.5"></path>
        <path d="M1136.37 399.38L1257.19 396.44" stroke="hsl(152.5, 96.3%, 54.8%)" stroke-width="1.5"></path>
        <path d="M1136.37 399.38L940.65 388.14" stroke="hsl(152.5, 96.3%, 54.8%)" stroke-width="1.5"></path>
        <path d="M1136.37 399.38L1252.32 236.23" stroke="hsl(152.5, 96.3%, 54.8%)" stroke-width="1.5"></path>
        <path d="M1295.31 -96.55L1295.31 -96.55" stroke="hsl(152.5, 96.3%, 54.8%)" stroke-width="1.5"></path>
        <path d="M1295.31 -96.55L1452.05 -67.17" stroke="hsl(152.5, 96.3%, 54.8%)" stroke-width="1.5"></path>
        <path d="M1295.31 -96.55L1290.37 91.69" stroke="hsl(152.5, 96.3%, 54.8%)" stroke-width="1.5"></path>
        <path d="M1417.97 246.44L1417.97 246.44" stroke="hsl(152.5, 96.3%, 54.8%)" stroke-width="1.5"></path>
        <path d="M1417.97 246.44L1450.69 345.54" stroke="hsl(152.5, 96.3%, 54.8%)" stroke-width="1.5"></path>
        <path d="M1417.97 246.44L1252.32 236.23" stroke="hsl(152.5, 96.3%, 54.8%)" stroke-width="1.5"></path>
        <path d="M1417.97 246.44L1589.39 215.56" stroke="hsl(152.5, 96.3%, 54.8%)" stroke-width="1.5"></path>
        <path d="M1417.97 246.44L1290.37 91.69" stroke="hsl(152.5, 96.3%, 54.8%)" stroke-width="1.5"></path>
        <path d="M1544.84 -66.28L1544.84 -66.28" stroke="hsl(152.5, 96.3%, 54.8%)" stroke-width="1.5"></path>
        <path d="M1544.84 -66.28L1452.05 -67.17" stroke="hsl(152.5, 96.3%, 54.8%)" stroke-width="1.5"></path>
        <path d="M1544.84 -66.28L1543.58 72.68" stroke="hsl(152.5, 96.3%, 54.8%)" stroke-width="1.5"></path>
        <path d="M-51.55 505.72L-51.55 505.72" stroke="hsl(152.5, 96.3%, 54.8%)" stroke-width="1.5"></path>
        <path d="M-51.55 505.72L74.97 527.54" stroke="hsl(152.5, 96.3%, 54.8%)" stroke-width="1.5"></path>
        <path d="M-51.55 505.72L96.41 697.12" stroke="hsl(152.5, 96.3%, 54.8%)" stroke-width="1.5"></path>
        <path d="M-51.55 505.72L204.77 542.43" stroke="hsl(152.5, 96.3%, 54.8%)" stroke-width="1.5"></path>
        <path d="M-51.55 505.72L197.26 705.92" stroke="hsl(152.5, 96.3%, 54.8%)" stroke-width="1.5"></path>
        <path d="M74.97 527.54L74.97 527.54" stroke="hsl(152.5, 96.3%, 54.8%)" stroke-width="1.5"></path>
        <path d="M74.97 527.54L204.77 542.43" stroke="hsl(152.5, 96.3%, 54.8%)" stroke-width="1.5"></path>
        <path d="M74.97 527.54L197.26 705.92" stroke="hsl(152.5, 96.3%, 54.8%)" stroke-width="1.5"></path>
        <path d="M74.97 527.54L351.76 558.92" stroke="hsl(152.5, 96.3%, 54.8%)" stroke-width="1.5"></path>
        <path d="M74.97 527.54L357.99 642.96" stroke="hsl(152.5, 96.3%, 54.8%)" stroke-width="1.5"></path>
        <path d="M204.77 542.43L204.77 542.43" stroke="hsl(152.5, 96.3%, 54.8%)" stroke-width="1.5"></path>
        <path d="M204.77 542.43L351.76 558.92" stroke="hsl(152.5, 96.3%, 54.8%)" stroke-width="1.5"></path>
        <path d="M204.77 542.43L197.26 705.92" stroke="hsl(152.5, 96.3%, 54.8%)" stroke-width="1.5"></path>
        <path d="M204.77 542.43L357.99 642.96" stroke="hsl(152.5, 96.3%, 54.8%)" stroke-width="1.5"></path>
        <path d="M204.77 542.43L96.41 697.12" stroke="hsl(152.5, 96.3%, 54.8%)" stroke-width="1.5"></path>
        <path d="M197.26 705.92L197.26 705.92" stroke="hsl(152.5, 96.3%, 54.8%)" stroke-width="1.5"></path>
        <path d="M351.76 558.92L351.76 558.92" stroke="hsl(152.5, 96.3%, 54.8%)" stroke-width="1.5"></path>
        <path d="M351.76 558.92L357.99 642.96" stroke="hsl(152.5, 96.3%, 54.8%)" stroke-width="1.5"></path>
        <path d="M351.76 558.92L545.87 558.27" stroke="hsl(152.5, 96.3%, 54.8%)" stroke-width="1.5"></path>
        <path d="M351.76 558.92L515.93 684.1" stroke="hsl(152.5, 96.3%, 54.8%)" stroke-width="1.5"></path>
        <path d="M351.76 558.92L197.26 705.92" stroke="hsl(152.5, 96.3%, 54.8%)" stroke-width="1.5"></path>
        <path d="M357.99 642.96L357.99 642.96" stroke="hsl(152.5, 96.3%, 54.8%)" stroke-width="1.5"></path>
        <path d="M357.99 642.96L515.93 684.1" stroke="hsl(152.5, 96.3%, 54.8%)" stroke-width="1.5"></path>
        <path d="M357.99 642.96L197.26 705.92" stroke="hsl(152.5, 96.3%, 54.8%)" stroke-width="1.5"></path>
        <path d="M357.99 642.96L545.87 558.27" stroke="hsl(152.5, 96.3%, 54.8%)" stroke-width="1.5"></path>
        <path d="M357.99 642.96L96.41 697.12" stroke="hsl(152.5, 96.3%, 54.8%)" stroke-width="1.5"></path>
        <path d="M545.87 558.27L545.87 558.27" stroke="hsl(152.5, 96.3%, 54.8%)" stroke-width="1.5"></path>
        <path d="M545.87 558.27L515.93 684.1" stroke="hsl(152.5, 96.3%, 54.8%)" stroke-width="1.5"></path>
        <path d="M545.87 558.27L693.99 514.93" stroke="hsl(152.5, 96.3%, 54.8%)" stroke-width="1.5"></path>
        <path d="M545.87 558.27L702.85 663.11" stroke="hsl(152.5, 96.3%, 54.8%)" stroke-width="1.5"></path>
        <path d="M515.93 684.1L515.93 684.1" stroke="hsl(152.5, 96.3%, 54.8%)" stroke-width="1.5"></path>
        <path d="M515.93 684.1L702.85 663.11" stroke="hsl(152.5, 96.3%, 54.8%)" stroke-width="1.5"></path>
        <path d="M515.93 684.1L693.99 514.93" stroke="hsl(152.5, 96.3%, 54.8%)" stroke-width="1.5"></path>
        <path d="M515.93 684.1L197.26 705.92" stroke="hsl(152.5, 96.3%, 54.8%)" stroke-width="1.5"></path>
        <path d="M693.99 514.93L693.99 514.93" stroke="hsl(152.5, 96.3%, 54.8%)" stroke-width="1.5"></path>
        <path d="M693.99 514.93L832.01 546.05" stroke="hsl(152.5, 96.3%, 54.8%)" stroke-width="1.5"></path>
        <path d="M693.99 514.93L702.85 663.11" stroke="hsl(152.5, 96.3%, 54.8%)" stroke-width="1.5"></path>
        <path d="M693.99 514.93L851.71 373.05" stroke="hsl(152.5, 96.3%, 54.8%)" stroke-width="1.5"></path>
        <path d="M693.99 514.93L859.6 658.92" stroke="hsl(152.5, 96.3%, 54.8%)" stroke-width="1.5"></path>
        <path d="M702.85 663.11L702.85 663.11" stroke="hsl(152.5, 96.3%, 54.8%)" stroke-width="1.5"></path>
        <path d="M702.85 663.11L859.6 658.92" stroke="hsl(152.5, 96.3%, 54.8%)" stroke-width="1.5"></path>
        <path d="M702.85 663.11L832.01 546.05" stroke="hsl(152.5, 96.3%, 54.8%)" stroke-width="1.5"></path>
        <path d="M851.71 373.05L851.71 373.05" stroke="hsl(152.5, 96.3%, 54.8%)" stroke-width="1.5"></path>
        <path d="M851.71 373.05L940.65 388.14" stroke="hsl(152.5, 96.3%, 54.8%)" stroke-width="1.5"></path>
        <path d="M851.71 373.05L832.01 546.05" stroke="hsl(152.5, 96.3%, 54.8%)" stroke-width="1.5"></path>
        <path d="M851.71 373.05L969.22 527.01" stroke="hsl(152.5, 96.3%, 54.8%)" stroke-width="1.5"></path>
        <path d="M851.71 373.05L1104.34 491.83" stroke="hsl(152.5, 96.3%, 54.8%)" stroke-width="1.5"></path>
        <path d="M832.01 546.05L832.01 546.05" stroke="hsl(152.5, 96.3%, 54.8%)" stroke-width="1.5"></path>
        <path d="M832.01 546.05L859.6 658.92" stroke="hsl(152.5, 96.3%, 54.8%)" stroke-width="1.5"></path>
        <path d="M832.01 546.05L969.22 527.01" stroke="hsl(152.5, 96.3%, 54.8%)" stroke-width="1.5"></path>
        <path d="M859.6 658.92L859.6 658.92" stroke="hsl(152.5, 96.3%, 54.8%)" stroke-width="1.5"></path>
        <path d="M859.6 658.92L969.22 527.01" stroke="hsl(152.5, 96.3%, 54.8%)" stroke-width="1.5"></path>
        <path d="M859.6 658.92L1132.87 651.57" stroke="hsl(152.5, 96.3%, 54.8%)" stroke-width="1.5"></path>
        <path d="M940.65 388.14L940.65 388.14" stroke="hsl(152.5, 96.3%, 54.8%)" stroke-width="1.5"></path>
        <path d="M940.65 388.14L969.22 527.01" stroke="hsl(152.5, 96.3%, 54.8%)" stroke-width="1.5"></path>
        <path d="M940.65 388.14L832.01 546.05" stroke="hsl(152.5, 96.3%, 54.8%)" stroke-width="1.5"></path>
        <path d="M969.22 527.01L969.22 527.01" stroke="hsl(152.5, 96.3%, 54.8%)" stroke-width="1.5"></path>
        <path d="M969.22 527.01L1104.34 491.83" stroke="hsl(152.5, 96.3%, 54.8%)" stroke-width="1.5"></path>
        <path d="M1101.22 197.27L1101.22 197.27" stroke="hsl(152.5, 96.3%, 54.8%)" stroke-width="1.5"></path>
        <path d="M1101.22 197.27L1252.32 236.23" stroke="hsl(152.5, 96.3%, 54.8%)" stroke-width="1.5"></path>
        <path d="M1101.22 197.27L1136.37 399.38" stroke="hsl(152.5, 96.3%, 54.8%)" stroke-width="1.5"></path>
        <path d="M1101.22 197.27L1290.37 91.69" stroke="hsl(152.5, 96.3%, 54.8%)" stroke-width="1.5"></path>
        <path d="M1101.22 197.27L940.65 388.14" stroke="hsl(152.5, 96.3%, 54.8%)" stroke-width="1.5"></path>
        <path d="M1101.22 197.27L1257.19 396.44" stroke="hsl(152.5, 96.3%, 54.8%)" stroke-width="1.5"></path>
        <path d="M1104.34 491.83L1104.34 491.83" stroke="hsl(152.5, 96.3%, 54.8%)" stroke-width="1.5"></path>
        <path d="M1132.87 651.57L1132.87 651.57" stroke="hsl(152.5, 96.3%, 54.8%)" stroke-width="1.5"></path>
        <path d="M1132.87 651.57L1253.61 679.44" stroke="hsl(152.5, 96.3%, 54.8%)" stroke-width="1.5"></path>
        <path d="M1132.87 651.57L1104.34 491.83" stroke="hsl(152.5, 96.3%, 54.8%)" stroke-width="1.5"></path>
        <path d="M1132.87 651.57L1297.05 558.43" stroke="hsl(152.5, 96.3%, 54.8%)" stroke-width="1.5"></path>
        <path d="M1132.87 651.57L969.22 527.01" stroke="hsl(152.5, 96.3%, 54.8%)" stroke-width="1.5"></path>
        <path d="M1132.87 651.57L1136.37 399.38" stroke="hsl(152.5, 96.3%, 54.8%)" stroke-width="1.5"></path>
        <path d="M1290.37 91.69L1290.37 91.69" stroke="hsl(152.5, 96.3%, 54.8%)" stroke-width="1.5"></path>
        <path d="M1290.37 91.69L1252.32 236.23" stroke="hsl(152.5, 96.3%, 54.8%)" stroke-width="1.5"></path>
        <path d="M1290.37 91.69L1437.96 42.87" stroke="hsl(152.5, 96.3%, 54.8%)" stroke-width="1.5"></path>
        <path d="M1290.37 91.69L1452.05 -67.17" stroke="hsl(152.5, 96.3%, 54.8%)" stroke-width="1.5"></path>
        <path d="M1252.32 236.23L1252.32 236.23" stroke="hsl(152.5, 96.3%, 54.8%)" stroke-width="1.5"></path>
        <path d="M1252.32 236.23L1257.19 396.44" stroke="hsl(152.5, 96.3%, 54.8%)" stroke-width="1.5"></path>
        <path d="M1257.19 396.44L1257.19 396.44" stroke="hsl(152.5, 96.3%, 54.8%)" stroke-width="1.5"></path>
        <path d="M1257.19 396.44L1297.05 558.43" stroke="hsl(152.5, 96.3%, 54.8%)" stroke-width="1.5"></path>
        <path d="M1257.19 396.44L1104.34 491.83" stroke="hsl(152.5, 96.3%, 54.8%)" stroke-width="1.5"></path>
        <path d="M1297.05 558.43L1297.05 558.43" stroke="hsl(152.5, 96.3%, 54.8%)" stroke-width="1.5"></path>
        <path d="M1297.05 558.43L1253.61 679.44" stroke="hsl(152.5, 96.3%, 54.8%)" stroke-width="1.5"></path>
        <path d="M1297.05 558.43L1449.67 503.85" stroke="hsl(152.5, 96.3%, 54.8%)" stroke-width="1.5"></path>
        <path d="M1253.61 679.44L1253.61 679.44" stroke="hsl(152.5, 96.3%, 54.8%)" stroke-width="1.5"></path>
        <path d="M1253.61 679.44L1414.77 709.99" stroke="hsl(152.5, 96.3%, 54.8%)" stroke-width="1.5"></path>
        <path d="M1452.05 -67.17L1452.05 -67.17" stroke="hsl(152.5, 96.3%, 54.8%)" stroke-width="1.5"></path>
        <path d="M1452.05 -67.17L1437.96 42.87" stroke="hsl(152.5, 96.3%, 54.8%)" stroke-width="1.5"></path>
        <path d="M1452.05 -67.17L1543.58 72.68" stroke="hsl(152.5, 96.3%, 54.8%)" stroke-width="1.5"></path>
        <path d="M1437.96 42.87L1437.96 42.87" stroke="hsl(152.5, 96.3%, 54.8%)" stroke-width="1.5"></path>
        <path d="M1437.96 42.87L1543.58 72.68" stroke="hsl(152.5, 96.3%, 54.8%)" stroke-width="1.5"></path>
        <path d="M1437.96 42.87L1544.84 -66.28" stroke="hsl(152.5, 96.3%, 54.8%)" stroke-width="1.5"></path>
        <path d="M1450.69 345.54L1450.69 345.54" stroke="hsl(152.5, 96.3%, 54.8%)" stroke-width="1.5"></path>
        <path d="M1450.69 345.54L1449.67 503.85" stroke="hsl(152.5, 96.3%, 54.8%)" stroke-width="1.5"></path>
        <path d="M1450.69 345.54L1612.4 348.82" stroke="hsl(152.5, 96.3%, 54.8%)" stroke-width="1.5"></path>
        <path d="M1449.67 503.85L1449.67 503.85" stroke="hsl(152.5, 96.3%, 54.8%)" stroke-width="1.5"></path>
        <path d="M1449.67 503.85L1555.43 529.73" stroke="hsl(152.5, 96.3%, 54.8%)" stroke-width="1.5"></path>
        <path d="M1414.77 709.99L1414.77 709.99" stroke="hsl(152.5, 96.3%, 54.8%)" stroke-width="1.5"></path>
        <path d="M1414.77 709.99L1602.54 671.41" stroke="hsl(152.5, 96.3%, 54.8%)" stroke-width="1.5"></path>
        <path d="M1414.77 709.99L1297.05 558.43" stroke="hsl(152.5, 96.3%, 54.8%)" stroke-width="1.5"></path>
        <path d="M1414.77 709.99L1449.67 503.85" stroke="hsl(152.5, 96.3%, 54.8%)" stroke-width="1.5"></path>
        <path d="M1414.77 709.99L1555.43 529.73" stroke="hsl(152.5, 96.3%, 54.8%)" stroke-width="1.5"></path>
        <path d="M1414.77 709.99L1132.87 651.57" stroke="hsl(152.5, 96.3%, 54.8%)" stroke-width="1.5"></path>
        <path d="M1543.58 72.68L1543.58 72.68" stroke="hsl(152.5, 96.3%, 54.8%)" stroke-width="1.5"></path>
        <path d="M1543.58 72.68L1589.39 215.56" stroke="hsl(152.5, 96.3%, 54.8%)" stroke-width="1.5"></path>
        <path d="M1543.58 72.68L1417.97 246.44" stroke="hsl(152.5, 96.3%, 54.8%)" stroke-width="1.5"></path>
        <path d="M1543.58 72.68L1290.37 91.69" stroke="hsl(152.5, 96.3%, 54.8%)" stroke-width="1.5"></path>
        <path d="M1589.39 215.56L1589.39 215.56" stroke="hsl(152.5, 96.3%, 54.8%)" stroke-width="1.5"></path>
        <path d="M1589.39 215.56L1612.4 348.82" stroke="hsl(152.5, 96.3%, 54.8%)" stroke-width="1.5"></path>
        <path d="M1612.4 348.82L1612.4 348.82" stroke="hsl(152.5, 96.3%, 54.8%)" stroke-width="1.5"></path>
        <path d="M1612.4 348.82L1555.43 529.73" stroke="hsl(152.5, 96.3%, 54.8%)" stroke-width="1.5"></path>
        <path d="M1612.4 348.82L1417.97 246.44" stroke="hsl(152.5, 96.3%, 54.8%)" stroke-width="1.5"></path>
        <path d="M1612.4 348.82L1449.67 503.85" stroke="hsl(152.5, 96.3%, 54.8%)" stroke-width="1.5"></path>
        <path d="M1555.43 529.73L1555.43 529.73" stroke="hsl(152.5, 96.3%, 54.8%)" stroke-width="1.5"></path>
        <path d="M1555.43 529.73L1602.54 671.41" stroke="hsl(152.5, 96.3%, 54.8%)" stroke-width="1.5"></path>
        <path d="M1555.43 529.73L1450.69 345.54" stroke="hsl(152.5, 96.3%, 54.8%)" stroke-width="1.5"></path>
        <path d="M1555.43 529.73L1297.05 558.43" stroke="hsl(152.5, 96.3%, 54.8%)" stroke-width="1.5"></path>
        <path d="M1602.54 671.41L1602.54 671.41" stroke="hsl(152.5, 96.3%, 54.8%)" stroke-width="1.5"></path>
        <path d="M1602.54 671.41L1449.67 503.85" stroke="hsl(152.5, 96.3%, 54.8%)" stroke-width="1.5"></path>
        <path d="M1602.54 671.41L1612.4 348.82" stroke="hsl(152.5, 96.3%, 54.8%)" stroke-width="1.5"></path>
        <path d="M1602.54 671.41L1297.05 558.43" stroke="hsl(152.5, 96.3%, 54.8%)" stroke-width="1.5"></path>
        <circle r="25" cx="96.41" cy="697.12" fill="url(#SvgjsRadialGradient2702)"></circle>
        <circle r="25" cx="956.99" cy="668.67" fill="url(#SvgjsRadialGradient2702)"></circle>
        <circle r="25" cx="1136.37" cy="399.38" fill="url(#SvgjsRadialGradient2702)"></circle>
        <circle r="25" cx="1295.31" cy="-96.55" fill="url(#SvgjsRadialGradient2702)"></circle>
        <circle r="25" cx="1417.97" cy="246.44" fill="url(#SvgjsRadialGradient2702)"></circle>
        <circle r="25" cx="1544.84" cy="-66.28" fill="url(#SvgjsRadialGradient2702)"></circle>
        <circle r="5" cx="-51.55" cy="505.72" fill="#82e9ba"></circle>
        <circle r="5" cx="74.97" cy="527.54" fill="#82e9ba"></circle>
        <circle r="5" cx="204.77" cy="542.43" fill="#82e9ba"></circle>
        <circle r="5" cx="197.26" cy="705.92" fill="#82e9ba"></circle>
        <circle r="5" cx="351.76" cy="558.92" fill="#82e9ba"></circle>
        <circle r="5" cx="357.99" cy="642.96" fill="#82e9ba"></circle>
        <circle r="5" cx="545.87" cy="558.27" fill="#82e9ba"></circle>
        <circle r="5" cx="515.93" cy="684.1" fill="#82e9ba"></circle>
        <circle r="5" cx="693.99" cy="514.93" fill="#82e9ba"></circle>
        <circle r="5" cx="702.85" cy="663.11" fill="#82e9ba"></circle>
        <circle r="5" cx="851.71" cy="373.05" fill="#82e9ba"></circle>
        <circle r="5" cx="832.01" cy="546.05" fill="#82e9ba"></circle>
        <circle r="5" cx="859.6" cy="658.92" fill="#82e9ba"></circle>
        <circle r="5" cx="940.65" cy="388.14" fill="#82e9ba"></circle>
        <circle r="5" cx="969.22" cy="527.01" fill="#82e9ba"></circle>
        <circle r="5" cx="1101.22" cy="197.27" fill="#82e9ba"></circle>
        <circle r="5" cx="1104.34" cy="491.83" fill="#82e9ba"></circle>
        <circle r="5" cx="1132.87" cy="651.57" fill="#82e9ba"></circle>
        <circle r="5" cx="1290.37" cy="91.69" fill="#82e9ba"></circle>
        <circle r="5" cx="1252.32" cy="236.23" fill="#82e9ba"></circle>
        <circle r="5" cx="1257.19" cy="396.44" fill="#82e9ba"></circle>
        <circle r="5" cx="1297.05" cy="558.43" fill="#82e9ba"></circle>
        <circle r="5" cx="1253.61" cy="679.44" fill="#82e9ba"></circle>
        <circle r="5" cx="1452.05" cy="-67.17" fill="#82e9ba"></circle>
        <circle r="5" cx="1437.96" cy="42.87" fill="#82e9ba"></circle>
        <circle r="5" cx="1450.69" cy="345.54" fill="#82e9ba"></circle>
        <circle r="5" cx="1449.67" cy="503.85" fill="#82e9ba"></circle>
        <circle r="5" cx="1414.77" cy="709.99" fill="#82e9ba"></circle>
        <circle r="5" cx="1543.58" cy="72.68" fill="#82e9ba"></circle>
        <circle r="5" cx="1589.39" cy="215.56" fill="#82e9ba"></circle>
        <circle r="5" cx="1612.4" cy="348.82" fill="#82e9ba"></circle>
        <circle r="5" cx="1555.43" cy="529.73" fill="#82e9ba"></circle>
        <circle r="5" cx="1602.54" cy="671.41" fill="#82e9ba"></circle>
    </g>
    <defs>
        <mask id="SvgjsMask2700">
            <rect width="1440" height="560" fill="#ffffff"></rect>
        </mask>
        <linearGradient x1="84.72%" y1="139.29%" x2="15.28%" y2="-39.29%" gradientUnits="userSpaceOnUse" id="SvgjsLinearGradient2701">
            <stop stop-color="rgba(14, 42, 71, 1)" offset="0.29"></stop>
            <stop stop-color="rgba(0, 170, 95, 1)" offset="1"></stop>
        </linearGradient>
        <radialGradient id="SvgjsRadialGradient2702">
            <stop stop-color="#ffffff" offset="0.1"></stop>
            <stop stop-color="rgba(4, 211, 116, 1)" offset="0.2"></stop>
            <stop stop-color="rgba(4, 211, 116, 0)" offset="1"></stop>
        </radialGradient>
    </defs>
</svg>  